<mxfile host="app.diagrams.net" agent="Mozilla/5.0 (Windows NT 10.0; Win64; x64) AppleWebKit/537.36 (KHTML, like Gecko) Chrome/133.0.0.0 Safari/537.36" version="26.0.16">
  <diagram name="PÃ¡gina-1" id="afzx3g1En9e3U05Ntp9F">
    <mxGraphModel>
      <root>
        <mxCell id="0" />
        <mxCell id="1" parent="0" />
        <mxCell id="2" value="Aluno" style="shape=umlLifeline;perimeter=lifelinePerimeter;whiteSpace=wrap;container=1;dropTarget=0;collapsible=0;recursiveResize=0;outlineConnect=0;portConstraint=eastwest;newEdgeStyle={&quot;edgeStyle&quot;:&quot;elbowEdgeStyle&quot;,&quot;elbow&quot;:&quot;vertical&quot;,&quot;curved&quot;:0,&quot;rounded&quot;:0};size=65;" vertex="1" parent="1">
          <mxGeometry width="150" height="494" as="geometry" />
        </mxCell>
        <mxCell id="3" value="Sistema" style="shape=umlLifeline;perimeter=lifelinePerimeter;whiteSpace=wrap;container=1;dropTarget=0;collapsible=0;recursiveResize=0;outlineConnect=0;portConstraint=eastwest;newEdgeStyle={&quot;edgeStyle&quot;:&quot;elbowEdgeStyle&quot;,&quot;elbow&quot;:&quot;vertical&quot;,&quot;curved&quot;:0,&quot;rounded&quot;:0};size=65;" vertex="1" parent="1">
          <mxGeometry x="200" width="150" height="494" as="geometry" />
        </mxCell>
        <mxCell id="4" value="Banco de Dados" style="shape=umlLifeline;perimeter=lifelinePerimeter;whiteSpace=wrap;container=1;dropTarget=0;collapsible=0;recursiveResize=0;outlineConnect=0;portConstraint=eastwest;newEdgeStyle={&quot;edgeStyle&quot;:&quot;elbowEdgeStyle&quot;,&quot;elbow&quot;:&quot;vertical&quot;,&quot;curved&quot;:0,&quot;rounded&quot;:0};size=65;" vertex="1" parent="1">
          <mxGeometry x="400" width="150" height="494" as="geometry" />
        </mxCell>
        <mxCell id="5" value="Moderador" style="shape=umlLifeline;perimeter=lifelinePerimeter;whiteSpace=wrap;container=1;dropTarget=0;collapsible=0;recursiveResize=0;outlineConnect=0;portConstraint=eastwest;newEdgeStyle={&quot;edgeStyle&quot;:&quot;elbowEdgeStyle&quot;,&quot;elbow&quot;:&quot;vertical&quot;,&quot;curved&quot;:0,&quot;rounded&quot;:0};size=65;" vertex="1" parent="1">
          <mxGeometry x="624" width="150" height="494" as="geometry" />
        </mxCell>
        <mxCell id="6" value="login()" style="verticalAlign=bottom;edgeStyle=elbowEdgeStyle;elbow=vertical;curved=0;rounded=0;endArrow=block;" edge="1" parent="1" source="2" target="3">
          <mxGeometry relative="1" as="geometry">
            <Array as="points">
              <mxPoint x="184" y="109" />
            </Array>
          </mxGeometry>
        </mxCell>
        <mxCell id="7" value="" style="verticalAlign=bottom;edgeStyle=elbowEdgeStyle;elbow=vertical;curved=0;rounded=0;dashed=1;dashPattern=2 3;endArrow=block;" edge="1" parent="1" source="3" target="2">
          <mxGeometry relative="1" as="geometry">
            <Array as="points">
              <mxPoint x="187" y="119" />
            </Array>
          </mxGeometry>
        </mxCell>
        <mxCell id="8" value="upload()" style="verticalAlign=bottom;edgeStyle=elbowEdgeStyle;elbow=vertical;curved=0;rounded=0;endArrow=block;" edge="1" parent="1" source="2" target="3">
          <mxGeometry relative="1" as="geometry">
            <Array as="points">
              <mxPoint x="184" y="173" />
            </Array>
          </mxGeometry>
        </mxCell>
        <mxCell id="9" value="Validar arquivo()" style="verticalAlign=bottom;edgeStyle=elbowEdgeStyle;elbow=vertical;curved=0;rounded=0;dashed=1;dashPattern=2 3;endArrow=block;" edge="1" parent="1" source="3" target="4">
          <mxGeometry relative="1" as="geometry">
            <Array as="points">
              <mxPoint x="384" y="227" />
            </Array>
          </mxGeometry>
        </mxCell>
        <mxCell id="10" value="Notificar Moderador()" style="verticalAlign=bottom;edgeStyle=elbowEdgeStyle;elbow=vertical;curved=0;rounded=0;dashed=1;dashPattern=2 3;endArrow=block;" edge="1" parent="1" source="4" target="5">
          <mxGeometry relative="1" as="geometry">
            <Array as="points">
              <mxPoint x="596" y="281" />
            </Array>
          </mxGeometry>
        </mxCell>
        <mxCell id="11" value="Aprovar arquivo()" style="verticalAlign=bottom;edgeStyle=elbowEdgeStyle;elbow=vertical;curved=0;rounded=0;endArrow=block;" edge="1" parent="1" source="5" target="3">
          <mxGeometry relative="1" as="geometry">
            <Array as="points">
              <mxPoint x="499" y="335" />
            </Array>
          </mxGeometry>
        </mxCell>
        <mxCell id="12" value="Bonificar aluno()" style="verticalAlign=bottom;edgeStyle=elbowEdgeStyle;elbow=vertical;curved=0;rounded=0;dashed=1;dashPattern=2 3;endArrow=block;" edge="1" parent="1" source="3" target="2">
          <mxGeometry relative="1" as="geometry">
            <Array as="points">
              <mxPoint x="187" y="389" />
            </Array>
          </mxGeometry>
        </mxCell>
      </root>
    </mxGraphModel>
  </diagram>
</mxfile>
